# Blender 4.2.0
# www.blender.org
mtllib ResourceStorage.mtl
o ResourceStorage
v 1.000000 0.000000 1.000000
v 1.000000 2.170113 1.000000
v 1.000000 0.000000 -1.000000
v 1.000000 2.170113 -1.000000
v 0.000000 5.072183 0.000000
v 0.522333 3.502471 -0.522333
v 1.575014 2.226412 -1.575014
v 1.085606 2.663473 -1.085606
v 0.522333 3.502471 0.522333
v 1.575014 2.226412 1.575014
v 1.085606 2.663473 1.085606
v 0.450940 0.000000 -1.000000
v 0.450940 2.170113 -1.000000
v 0.450940 0.000000 1.000000
v 0.235541 3.502471 -0.522333
v 0.489543 2.663473 -1.085606
v 0.710236 2.226412 -1.575014
v 1.000000 1.893932 -1.000000
v 1.000000 1.893932 1.000000
v 0.450940 1.893932 1.000000
v 0.450940 1.893932 -1.000000
v 0.348361 0.102578 1.164951
v 0.348361 1.791353 1.164951
v 0.450940 0.000000 1.164951
v 0.450940 1.893932 1.164951
v 0.348361 0.102578 1.125104
v 0.348361 1.791353 1.125104
v 0.000000 0.000000 -1.000000
v 0.000000 2.170113 -1.000000
v 0.000000 0.000000 1.000000
v 0.000000 2.170113 1.000000
v 0.000000 3.502471 -0.522333
v 0.000000 2.663473 -1.085606
v 0.000000 2.226412 -1.575014
v 0.000000 3.502471 0.522333
v 0.000000 2.663473 1.085606
v 0.000000 2.226412 1.575014
v 0.000000 1.893932 -1.000000
v 0.000000 1.893932 1.000000
v 0.000000 0.000000 1.164951
v 0.000000 1.893932 1.164951
v 0.000000 0.102578 1.164951
v 0.000000 1.791353 1.164951
v 0.000000 0.102578 1.125104
v 0.000000 1.791353 1.125104
v -1.000000 0.000000 1.000000
v -1.000000 2.170113 1.000000
v -1.000000 0.000000 -1.000000
v -1.000000 2.170113 -1.000000
v -0.522333 3.502471 -0.522333
v -1.575014 2.226412 -1.575014
v -1.085606 2.663473 -1.085606
v -0.522333 3.502471 0.522333
v -1.575014 2.226412 1.575014
v -1.085606 2.663473 1.085606
v -0.450940 0.000000 -1.000000
v -0.450940 2.170113 -1.000000
v -0.450940 0.000000 1.000000
v -0.235541 3.502471 -0.522333
v -0.489543 2.663473 -1.085606
v -0.710236 2.226412 -1.575014
v -1.000000 1.893932 -1.000000
v -1.000000 1.893932 1.000000
v -0.450940 1.893932 1.000000
v -0.450940 1.893932 -1.000000
v -0.348361 0.102578 1.164951
v -0.348361 1.791353 1.164951
v -0.450940 0.000000 1.164951
v -0.450940 1.893932 1.164951
v -0.348361 0.102578 1.125104
v -0.348361 1.791353 1.125104
v 0.999425 0.086631 1.355526
v 0.947556 0.030277 1.194961
v 0.947556 0.339678 1.194961
v 0.999425 0.283324 1.355526
v 1.207183 0.030277 0.687553
v 1.367748 0.086631 0.635685
v 1.367748 0.283324 0.635685
v 1.207183 0.339678 0.687553
v 1.331673 0.030277 1.391503
v 1.171108 0.086631 1.443372
v 1.171108 0.283324 1.443372
v 1.331673 0.339678 1.391503
v 1.539431 0.086631 0.723530
v 1.591299 0.030277 0.884095
v 1.591299 0.339678 0.884095
v 1.539431 0.283324 0.723530
v 0.953455 0.184978 1.369409
v 0.881963 0.184978 1.196740
v 1.352114 0.184978 0.590281
v 1.170252 0.184978 0.633316
v 1.656892 0.184978 0.882316
v 1.585400 0.184978 0.709647
v 1.186742 0.184978 1.488776
v 1.368604 0.184978 1.445741
v 1.631729 0.017862 1.184276
v 1.460827 0.041898 1.227427
v 1.618907 0.295269 1.308313
v 1.732224 0.178936 1.235696
v 1.051994 0.368913 1.002069
v 1.051733 0.481787 0.864568
v 1.152228 0.642861 0.915989
v 1.210075 0.622285 1.082955
v 1.665250 0.035643 0.847498
v 1.723097 0.015067 1.014464
v 1.823592 0.176141 1.065885
v 1.823330 0.289015 0.928384
v 1.143101 0.478992 0.694757
v 1.256418 0.362659 0.622140
v 1.414498 0.616030 0.703026
v 1.243596 0.640066 0.746177
v 1.689468 0.079796 1.253618
v 1.535153 0.151367 1.331012
v 1.061703 0.581930 0.907579
v 1.081187 0.514484 1.080776
v 1.340172 0.506561 0.599440
v 1.185856 0.578132 0.676835
v 1.813621 0.075998 1.022874
v 1.794138 0.143444 0.849677
v 1.313773 0.292170 1.146717
v 1.518197 0.285916 0.766788
v 1.471853 0.545542 1.227602
v 1.676277 0.539288 0.847673
v 1.365532 0.419691 1.237863
v 1.624518 0.411767 0.756527
v 0.666445 0.017862 1.528215
v 0.635032 0.041898 1.354771
v 0.543569 0.295269 1.506976
v 0.608301 0.178936 1.624975
v 0.887707 0.368913 0.962234
v 1.024907 0.481787 0.971337
v 0.966762 0.642861 1.068097
v 0.796245 0.622285 1.114439
v 1.000158 0.035644 1.584592
v 0.829640 0.015067 1.630934
v 0.771496 0.176141 1.727695
v 0.908696 0.289015 1.736797
v 1.188102 0.478992 1.074056
v 1.252833 0.362659 1.192055
v 1.161371 0.616030 1.344260
v 1.129957 0.640066 1.170817
v 0.593332 0.079796 1.581098
v 0.526626 0.151367 1.421870
v 0.981317 0.581931 0.978355
v 0.807195 0.514484 0.985999
v 1.269777 0.506561 1.277161
v 1.203070 0.578132 1.117933
v 0.815086 0.075998 1.720676
v 0.989207 0.143444 1.713032
v 0.764964 0.258527 1.159438
v 1.130091 0.252273 1.389259
v 0.673502 0.511899 1.311643
v 1.038629 0.505644 1.541464
v 0.670506 0.386048 1.204870
v 1.133087 0.378124 1.496032
vn -0.0000 -0.0000 -1.0000
vn 1.0000 -0.0000 -0.0000
vn -0.0000 -1.0000 -0.0000
vn -0.0000 0.3157 0.9488
vn 0.9488 0.3157 -0.0000
vn 0.0974 -0.9952 -0.0000
vn -0.0000 0.5574 -0.8302
vn -0.0000 0.7459 -0.6661
vn 0.8302 0.5574 -0.0000
vn 0.6661 0.7459 -0.0000
vn -0.0000 -0.9952 0.0974
vn -0.0000 -0.9952 -0.0974
vn -0.0000 -0.0000 1.0000
vn -1.0000 -0.0000 -0.0000
vn -0.0000 1.0000 -0.0000
vn -0.0000 0.5574 0.8302
vn -0.0000 0.7459 0.6661
vn -0.0000 0.3157 -0.9488
vn -0.9488 0.3157 -0.0000
vn -0.0974 -0.9952 -0.0000
vn -0.8302 0.5574 -0.0000
vn -0.6661 0.7459 -0.0000
vn -0.4314 0.3207 0.8432
vn 0.8343 0.3488 0.4269
vn 0.1945 0.9042 -0.3802
vn -0.1945 0.9042 0.3802
vn -0.8343 0.3488 -0.4269
vn 0.4314 0.3207 -0.8432
vn -0.8387 0.3931 0.3769
vn -0.1849 -0.3931 -0.9007
vn 0.8387 -0.3931 -0.3769
vn 0.1849 -0.3931 0.9007
vn 0.1945 -0.9042 -0.3802
vn -0.1945 -0.9042 0.3802
vn 0.1849 0.3931 0.9007
vn 0.8387 0.3931 -0.3770
vn -0.1849 0.3931 -0.9007
vn -0.8387 -0.3931 0.3769
vn 0.4314 -0.3207 -0.8432
vn -0.8343 -0.3488 -0.4269
vn 0.8343 -0.3488 0.4269
vn -0.4314 -0.3207 0.8432
vn 0.8433 -0.2808 0.4583
vn 0.7100 0.2080 -0.6728
vn 0.1556 0.9855 0.0675
vn 0.7683 0.4954 0.4052
vn -0.3515 0.3834 0.8541
vn -0.5155 0.8061 -0.2907
vn 0.4432 -0.0815 0.8927
vn -0.9879 0.0981 0.1197
vn -0.4432 0.0815 -0.8927
vn 0.5863 -0.7420 -0.3253
vn -0.7683 -0.4954 -0.4052
vn 0.2256 0.9685 0.1055
vn -0.2256 -0.9685 -0.1055
vn -0.1556 -0.9855 -0.0675
vn 0.9879 -0.0981 -0.1197
vn -0.0415 0.7253 -0.6872
vn -0.5863 0.7420 0.3253
vn 0.0415 -0.7253 0.6872
vn -0.8433 0.2808 -0.4583
vn -0.5336 -0.3269 0.7800
vn 0.1786 -0.2130 -0.9606
vn 0.5155 -0.8061 0.2907
vn 0.3620 -0.3601 -0.8598
vn -0.6978 -0.1951 0.6892
vn -0.7353 -0.5567 -0.3865
vn 0.7353 0.5567 0.3865
vn -0.1557 0.2272 0.9613
vn 0.5348 0.3482 -0.7700
vn -0.5147 -0.2808 0.8101
vn 0.6624 0.2450 0.7080
vn -0.0780 0.9855 0.1507
vn -0.4566 0.4954 0.7389
vn -0.8745 0.3290 -0.3564
vn 0.3251 0.8061 -0.4946
vn -0.9208 -0.0815 0.3814
vn -0.0522 0.0981 -0.9938
vn 0.9208 0.0815 -0.3814
vn 0.2846 -0.7420 0.6071
vn 0.4566 -0.4954 -0.7389
vn -0.2175 0.9031 0.3702
vn 0.2175 -0.9031 -0.3702
vn 0.0780 -0.9855 -0.1507
vn 0.0522 -0.0981 0.9938
vn 0.6884 0.7253 0.0054
vn -0.2846 0.7420 -0.6071
vn -0.6884 -0.7253 -0.0054
vn 0.5147 0.2808 -0.8101
vn -0.7205 -0.3036 -0.6235
vn 0.9119 -0.2753 0.3043
vn -0.3251 -0.8061 0.4946
vn 0.8753 -0.3216 0.3612
vn -0.6687 -0.2379 -0.7044
vn 0.3525 -0.7344 -0.5800
vn -0.3525 0.7344 0.5800
vn -0.9122 0.2802 -0.2991
vn 0.7141 0.3142 0.6256
vt 0.572421 0.416667
vt 0.625000 0.416667
vt 0.625000 0.500000
vt 0.572421 0.500000
vt 0.625000 0.750000
vt 0.572421 0.750000
vt 0.291667 0.500000
vt 0.375000 0.500000
vt 0.375000 0.750000
vt 0.291667 0.750000
vt 0.625000 1.000000
vt 0.625000 0.941979
vt 0.625000 0.883958
vt 0.625000 0.633958
vt 0.625000 0.750000
vt 0.625000 0.461319
vt 0.625000 0.499339
vt 0.625000 0.431467
vt 0.625000 0.749339
vt 0.625000 0.545722
vt 0.625000 0.397531
vt 0.625000 0.375000
vt 0.625000 0.441979
vt 0.625000 0.875000
vt 0.625000 0.745830
vt 0.250000 0.500000
vt 0.250000 0.750000
vt 0.572421 0.833333
vt 0.572421 0.375000
vt 0.375000 0.375000
vt 0.375000 0.416667
vt 0.375000 0.833333
vt 0.559598 0.842811
vt 0.387822 0.842811
vt 0.559598 0.875000
vt 0.572421 0.875000
vt 0.387822 0.875000
vt 0.375000 0.875000
vt 0.625000 0.897531
vt 0.625000 0.795722
vt 0.500000 0.819131
vt 0.625000 0.819131
vt 0.625000 0.930869
vt 0.500000 0.930869
vt 0.500000 0.536889
vt 0.625000 0.536889
vt 0.625000 0.713111
vt 0.500000 0.713111
vt 0.694131 0.500000
vt 0.805869 0.500000
vt 0.875000 0.536889
vt 0.875000 0.713111
vt 0.805869 0.750000
vt 0.694131 0.750000
vt 0.500000 0.036889
vt 0.625000 0.036889
vt 0.625000 0.213111
vt 0.500000 0.213111
vt 0.500000 0.319131
vt 0.625000 0.319131
vt 0.625000 0.430869
vt 0.500000 0.430869
vt 0.500000 0.000000
vt 0.625000 0.000000
vt 0.375000 0.319131
vt 0.375000 0.213111
vt 0.375000 0.536889
vt 0.375000 0.430869
vt 0.375000 0.819131
vt 0.375000 0.713111
vt 0.125000 0.536889
vt 0.194131 0.500000
vt 0.305869 0.500000
vt 0.125000 0.713111
vt 0.194131 0.750000
vt 0.305869 0.750000
vt 0.375000 0.000000
vt 0.375000 0.036889
vt 0.375000 0.930869
vt 0.500000 0.625000
vt 0.625000 0.625000
vt 0.500000 0.125000
vt 0.625000 0.125000
vt 0.875000 0.625000
vt 0.125000 0.625000
vt 0.375000 0.625000
vt 0.375000 0.125000
s 0
f 21/1/1 13/2/1 4/3/1 18/4/1
f 18/4/2 4/3/2 2/5/2 19/6/2
f 12/7/3 3/8/3 1/9/3 14/10/3
f 5/11/4 35/12/4 9/13/4
f 9/5/5 6/14/5 5/5/5
f 2/5/6 4/3/6 7/3/6 10/15/6
f 15/16/7 6/3/7 8/17/7 16/18/7
f 16/18/8 8/17/8 7/3/8 17/2/8
f 6/14/9 9/5/9 11/19/9 8/20/9
f 8/20/10 11/19/10 10/15/10 7/3/10
f 33/21/8 16/18/8 17/2/8 34/22/8
f 32/23/7 15/16/7 16/18/7 33/21/7
f 31/24/11 2/5/11 10/25/11 37/24/11
f 4/3/12 13/2/12 17/2/12 7/3/12
f 28/26/3 12/7/3 14/10/3 30/27/3
f 19/6/13 2/5/13 20/28/13
f 38/29/1 29/22/1 13/2/1 21/1/1
f 28/30/1 38/29/1 21/1/1 12/31/1
f 14/32/2 20/28/2 25/28/2 24/32/2
f 1/9/13 19/6/13 20/28/13 14/32/13
f 3/8/2 18/4/2 19/6/2 1/9/2
f 12/31/1 21/1/1 18/4/1 3/8/1
f 30/27/3 14/10/3 24/10/3 40/27/3
f 23/33/13 22/34/13 24/32/13 25/28/13
f 43/35/13 23/33/13 25/28/13 41/36/13
f 22/34/14 23/33/14 27/33/14 26/34/14
f 42/37/15 22/34/15 26/34/15 44/37/15
f 26/34/13 27/33/13 45/35/13 44/37/13
f 22/34/13 42/37/13 40/38/13 24/32/13
f 20/28/15 39/36/15 41/36/15 25/28/15
f 23/33/3 43/35/3 45/35/3 27/33/3
f 20/28/13 2/5/13 31/24/13 39/36/13
f 13/2/12 29/22/12 34/22/12 17/2/12
f 9/13/16 35/12/16 36/39/16 11/40/16
f 11/40/17 36/39/17 37/24/17 10/25/17
f 6/3/18 15/16/18 32/23/18 5/3/18
f 65/1/1 62/4/1 49/3/1 57/2/1
f 62/4/14 63/6/14 47/5/14 49/3/14
f 56/7/3 58/10/3 46/9/3 48/8/3
f 5/11/4 53/13/4 35/12/4
f 53/5/19 5/5/19 50/14/19
f 47/5/20 54/15/20 51/3/20 49/3/20
f 59/16/7 60/18/7 52/17/7 50/3/7
f 60/18/8 61/2/8 51/3/8 52/17/8
f 50/14/21 52/20/21 55/19/21 53/5/21
f 52/20/22 51/3/22 54/15/22 55/19/22
f 33/21/8 34/22/8 61/2/8 60/18/8
f 32/23/7 33/21/7 60/18/7 59/16/7
f 31/24/11 37/24/11 54/25/11 47/5/11
f 49/3/12 51/3/12 61/2/12 57/2/12
f 28/26/3 30/27/3 58/10/3 56/7/3
f 63/6/13 64/28/13 47/5/13
f 38/29/1 65/1/1 57/2/1 29/22/1
f 28/30/1 56/31/1 65/1/1 38/29/1
f 58/32/14 68/32/14 69/28/14 64/28/14
f 46/9/13 58/32/13 64/28/13 63/6/13
f 48/8/14 46/9/14 63/6/14 62/4/14
f 56/31/1 48/8/1 62/4/1 65/1/1
f 30/27/3 40/27/3 68/10/3 58/10/3
f 67/33/13 69/28/13 68/32/13 66/34/13
f 43/35/13 41/36/13 69/28/13 67/33/13
f 66/34/2 70/34/2 71/33/2 67/33/2
f 42/37/15 44/37/15 70/34/15 66/34/15
f 70/34/13 44/37/13 45/35/13 71/33/13
f 66/34/13 68/32/13 40/38/13 42/37/13
f 64/28/15 69/28/15 41/36/15 39/36/15
f 67/33/3 71/33/3 45/35/3 43/35/3
f 64/28/13 39/36/13 31/24/13 47/5/13
f 57/2/12 61/2/12 34/22/12 29/22/12
f 53/13/16 55/40/16 36/39/16 35/12/16
f 55/40/17 54/25/17 37/24/17 36/39/17
f 50/3/18 5/3/18 32/23/18 59/16/18
f 94/41/23 82/42/23 75/43/23 88/44/23
f 92/45/24 86/46/24 83/47/24 95/48/24
f 86/46/25 87/49/25 78/50/25 79/51/25
f 83/47/26 74/52/26 75/53/26 82/54/26
f 89/55/27 74/56/27 79/57/27 91/58/27
f 90/59/28 78/60/28 87/61/28 93/62/28
f 88/63/29 75/64/29 74/56/29 89/55/29
f 90/59/30 77/65/30 76/66/30 91/58/30
f 92/45/31 85/67/31 84/68/31 93/62/31
f 94/41/32 81/69/32 80/70/32 95/48/32
f 76/71/33 77/72/33 84/73/33 85/67/33
f 83/47/15 86/46/15 79/51/15 74/52/15
f 73/74/3 76/71/3 85/67/3 80/70/3
f 72/75/34 73/74/34 80/70/34 81/76/34
f 82/42/35 94/41/35 95/48/35 83/47/35
f 86/46/36 92/45/36 93/62/36 87/61/36
f 78/60/37 90/59/37 91/58/37 79/57/37
f 72/77/38 88/63/38 89/55/38 73/78/38
f 77/65/39 90/59/39 93/62/39 84/68/39
f 73/78/40 89/55/40 91/58/40 76/66/40
f 85/67/41 92/45/41 95/48/41 80/70/41
f 81/69/42 94/41/42 88/44/42 72/79/42
f 118/41/43 106/42/43 99/43/43 112/44/43
f 125/80/44 123/81/44 107/47/44 119/48/44
f 110/46/45 111/49/45 102/50/45 103/51/45
f 107/47/46 98/52/46 99/53/46 106/54/46
f 124/82/47 122/83/47 103/57/47 115/58/47
f 114/59/48 102/60/48 111/61/48 117/62/48
f 112/63/49 99/64/49 98/56/49 113/55/49
f 114/59/50 101/65/50 100/66/50 115/58/50
f 116/45/51 109/67/51 108/68/51 117/62/51
f 118/41/52 105/69/52 104/70/52 119/48/52
f 100/71/53 101/72/53 108/73/53 109/67/53
f 123/81/54 110/46/54 103/51/54 122/84/54
f 120/85/55 100/71/55 109/67/55 121/86/55
f 96/75/56 97/74/56 104/70/56 105/76/56
f 106/42/57 118/41/57 119/48/57 107/47/57
f 110/46/58 116/45/58 117/62/58 111/61/58
f 102/60/59 114/59/59 115/58/59 103/57/59
f 96/77/60 112/63/60 113/55/60 97/78/60
f 101/65/61 114/59/61 117/62/61 108/68/61
f 120/87/62 124/82/62 115/58/62 100/66/62
f 121/86/63 125/80/63 119/48/63 104/70/63
f 105/69/64 118/41/64 112/44/64 96/79/64
f 109/67/65 116/45/65 125/80/65 121/86/65
f 97/78/66 113/55/66 124/82/66 120/87/66
f 97/74/67 120/85/67 121/86/67 104/70/67
f 107/47/68 123/81/68 122/84/68 98/52/68
f 113/55/69 98/56/69 122/83/69 124/82/69
f 116/45/70 110/46/70 123/81/70 125/80/70
f 148/41/71 136/42/71 129/43/71 142/44/71
f 155/80/72 153/81/72 137/47/72 149/48/72
f 140/46/73 141/49/73 132/50/73 133/51/73
f 137/47/74 128/52/74 129/53/74 136/54/74
f 154/82/75 152/83/75 133/57/75 145/58/75
f 144/59/76 132/60/76 141/61/76 147/62/76
f 142/63/77 129/64/77 128/56/77 143/55/77
f 144/59/78 131/65/78 130/66/78 145/58/78
f 146/45/79 139/67/79 138/68/79 147/62/79
f 148/41/80 135/69/80 134/70/80 149/48/80
f 130/71/81 131/72/81 138/73/81 139/67/81
f 153/81/82 140/46/82 133/51/82 152/84/82
f 150/85/83 130/71/83 139/67/83 151/86/83
f 126/75/84 127/74/84 134/70/84 135/76/84
f 136/42/85 148/41/85 149/48/85 137/47/85
f 140/46/86 146/45/86 147/62/86 141/61/86
f 132/60/87 144/59/87 145/58/87 133/57/87
f 126/77/88 142/63/88 143/55/88 127/78/88
f 131/65/89 144/59/89 147/62/89 138/68/89
f 150/87/90 154/82/90 145/58/90 130/66/90
f 151/86/91 155/80/91 149/48/91 134/70/91
f 135/69/92 148/41/92 142/44/92 126/79/92
f 139/67/93 146/45/93 155/80/93 151/86/93
f 127/78/94 143/55/94 154/82/94 150/87/94
f 127/74/95 150/85/95 151/86/95 134/70/95
f 137/47/96 153/81/96 152/84/96 128/52/96
f 143/55/97 128/56/97 152/83/97 154/82/97
f 146/45/98 140/46/98 153/81/98 155/80/98
